<svg xmlns="http://www.w3.org/2000/svg" preserveAspectRatio="xMidYMid meet" viewBox="0 0 500 610"><path d="M160 9C82 33 16 95 4 156c-13 68 27 147 59 115 8-8 5-17-11-34-32-34-30-96 4-137C137 4 300 0 300 94c0 40-21 70-59 86-52 21-62 10-45-52 19-72 18-76-13-71C132 65 124 70 140 80c12 8 10 26-14 122C90 347 86 358 55 370c-46 17-26 25 55 22 44-2 80-7 80-11 0-5-11-6-25-3-30 5-31 0-7-93 25-98 43-97 63 2l16 78L200 420C144 502 86 557 45 564 19 569 10 576 10 590c0 42 69 16 123-45l64-83c26-34 51-58 55-54s11 43 14 85l7 77h48c26 0 51-5 54-10 4-6-6-10-23-10-29 0-30-2-37-53-3-28-11-75-17-104l-11-52 43-56c49-63 88-95 118-95 49 0 72-32 32-45-30-10-73 19-143 96l-65 71-7-53c-6-46-5-55 11-64 97-54 111-146 29-181A264 264 0 00 160 9"/></svg>
